<svg xmlns="http://www.w3.org/2000/svg" viewBox="0 0 128 128" width="128" height="128" role="img" aria-label="Lightbeacon Security Metric Icon">
  <defs>
    <clipPath id="badgeClip">
      <circle cx="64" cy="64" r="40"></circle>
    </clipPath>
    <style>
      .issue-flash {
        animation: pulse 1.8s infinite ease-in-out;
        transform-origin: 64px 52px;
      }
      @keyframes pulse {
        0% { opacity: 0.3; transform: scale(0.9); }
        50% { opacity: 0.9; transform: scale(1.1); }
        100% { opacity: 0.3; transform: scale(0.9); }
      }
      .metric-text {
        font-family: system-ui, -apple-system, "Segoe UI", Roboto, Helvetica, Arial, sans-serif;
      }
    </style>
  </defs>
  <text x="64" y="20" text-anchor="middle" class="metric-text" font-size="18" font-weight="900" fill="#990000">A</text>
  <circle cx="64" cy="64" r="42" fill="none" stroke="#2C3E50" stroke-width="2"></circle>
  <g clip-path="url(#badgeClip)">
    <rect x="20" y="20" width="88" height="88" fill="#A8DADC"></rect>
    <path d="M82,48 C85,48 87,46 87,43 C87,40 84,38 81,39 C80,36 76,34 73,36 C70,36 68,38 68,41 C66,41 64,43 64,45 C64,47 66,49 68,49 Z" fill="#F1F1F1" opacity="0.9"></path>
    <rect x="20" y="78" width="88" height="30" fill="#1D3557"></rect>
    <polygon points="64,52 34,92 94,92" fill="#F1C40F" opacity="0.4"></polygon>
    <polygon points="56,94 72,94 68,58 60,58" fill="#E67E22" stroke="#D68A0A" stroke-width="1"></polygon>
    <rect x="60" y="48" width="8" height="10" fill="none" stroke="#E67E22" stroke-width="1.5"></rect>
    <polygon points="58,48 70,48 64,40" fill="#E67E22"></polygon>
    <path d="M59,76 L63,80 L70,70" fill="none" stroke="#FFFFFF" stroke-width="3" stroke-linecap="round" stroke-linejoin="round"></path>
  </g>
  <circle cx="64" cy="52" r="10" class="issue-flash" fill="#E74C3C" opacity="0.6" style="mix-blend-mode: screen;"></circle>
  <circle cx="64" cy="52" r="3" fill="#E74C3C"></circle>
  <text x="64" y="122" text-anchor="middle" class="metric-text" font-size="15" font-weight="700" letter-spacing="-0.5" fill="#D49A17">999</text>
</svg>
